<svg xmlns="http://www.w3.org/2000/svg" xmlns:xlink="http://www.w3.org/1999/xlink" width="500" zoomAndPan="magnify" viewBox="0 0 375 374.999991" height="500" preserveAspectRatio="xMidYMid meet" version="1.0"><defs><clipPath id="fdeedbf9db"><path d="M 351 101 L 362.082031 101 L 362.082031 113 L 351 113 Z M 351 101 " clip-rule="nonzero"/></clipPath><clipPath id="5e0ec2b5b1"><path d="M 12.582031 37.5 L 267 37.5 L 267 324.75 L 12.582031 324.75 Z M 12.582031 37.5 " clip-rule="nonzero"/></clipPath></defs><path fill="#279dd7" d="M 249.917969 90.4375 L 285.753906 90.4375 L 285.753906 126.277344 L 249.917969 126.277344 Z M 249.917969 90.4375 " fill-opacity="1" fill-rule="evenodd"/><path fill="#1a237e" d="M 284.957031 138.613281 L 312.441406 138.613281 L 312.441406 166.097656 L 284.957031 166.097656 Z M 284.957031 138.613281 " fill-opacity="1" fill-rule="evenodd"/><path fill="#279dd7" d="M 313.632812 99.996094 L 335.933594 99.996094 L 335.933594 122.296875 L 313.632812 122.296875 Z M 313.632812 99.996094 " fill-opacity="1" fill-rule="evenodd"/><g clip-path="url(#fdeedbf9db)"><path fill="#1a237e" d="M 351.667969 101.386719 L 362.410156 101.386719 L 362.410156 112.136719 L 351.667969 112.136719 Z M 351.667969 101.386719 " fill-opacity="1" fill-rule="evenodd"/></g><path fill="#1a237e" d="M 332.550781 72.917969 L 345.6875 72.917969 L 345.6875 86.054688 L 332.550781 86.054688 Z M 332.550781 72.917969 " fill-opacity="1" fill-rule="evenodd"/><path fill="#279dd7" d="M 316.421875 46.835938 L 327.171875 46.835938 L 327.171875 57.585938 L 316.421875 57.585938 Z M 316.421875 46.835938 " fill-opacity="1" fill-rule="evenodd"/><path fill="#ffffcc" d="M 346.289062 48.027344 L 350.269531 48.027344 L 350.269531 52.015625 L 346.289062 52.015625 Z M 346.289062 48.027344 " fill-opacity="1" fill-rule="evenodd"/><path fill="#1a237e" d="M 171.496094 164.855469 C 171.496094 147.472656 157.398438 133.371094 140.015625 133.371094 L 140.015625 79.796875 C 112.148438 104.261719 78.898438 121.773438 42.8125 130.445312 C 44.753906 168.167969 54.777344 206.753906 74.664062 238.9375 C 89.691406 263.257812 111.96875 285.875 140.015625 294.171875 L 140.015625 229.105469 L 174.925781 229.105469 L 159.761719 189.371094 C 167.082031 183.46875 171.496094 174.503906 171.496094 164.847656 Z M 129.550781 186.335938 C 121.597656 182.457031 116.117188 174.296875 116.117188 164.855469 C 116.117188 151.660156 126.820312 140.960938 140.015625 140.960938 C 153.207031 140.960938 163.910156 151.660156 163.910156 164.855469 C 163.910156 174.296875 158.429688 182.457031 150.480469 186.335938 L 151.957031 190.21875 L 163.910156 221.515625 L 116.117188 221.515625 L 128.0625 190.21875 Z M 129.550781 186.335938 " fill-opacity="1" fill-rule="evenodd"/><g clip-path="url(#5e0ec2b5b1)"><path fill="#279dd7" d="M 140.015625 69.558594 C 165.96875 93.757812 197.128906 111.507812 231.203125 121.042969 L 231.203125 144.988281 L 243.6875 144.988281 C 240.113281 179.421875 229.863281 213.722656 211.8125 242.9375 C 195.355469 269.574219 170.886719 293.757812 140.003906 302.0625 C 109.121094 293.757812 84.652344 269.566406 68.199219 242.9375 C 46.546875 207.90625 36.125 165.535156 34.96875 124.433594 C 74.445312 116.148438 110.570312 97 140.003906 69.558594 Z M 240.359375 123.390625 L 240.359375 100.429688 C 201.078125 90.152344 166.363281 67.851562 140.015625 37.503906 C 107.792969 74.601562 63.074219 99.679688 12.796875 105.464844 C 12.660156 109.191406 12.589844 112.933594 12.589844 116.710938 C 12.589844 222.207031 67.882812 309.613281 140.023438 324.972656 C 207.75 310.558594 260.628906 232.613281 266.835938 135.824219 L 240.367188 135.824219 L 240.367188 123.390625 Z M 240.359375 123.390625 " fill-opacity="1" fill-rule="evenodd"/></g></svg>